<svg xmlns="http://www.w3.org/2000/svg" viewBox="0 0 156.504 63.8">
  <defs>
    <style>
      .cls-1, .cls-2 {
        fill: #ed1c24;
      }

      .cls-2 {
        font-size: 16px;
        font-family: TondoCorp-Bold, Tondo Corp;
        font-weight: 700;
      }
    </style>
  </defs>
  <g id="Group_4" data-name="Group 4" transform="translate(-49 -34)">
    <g id="Group_2" data-name="Group 2" transform="translate(49 34)">
      <g id="Group_1" data-name="Group 1" transform="translate(44.175)">
        <path id="Path_1" data-name="Path 1" class="cls-1" d="M280.156,0A4.521,4.521,0,0,0,275.6,4.5a4.5,4.5,0,0,0,9.009.026,4.388,4.388,0,0,0-1.236-3.166A4.479,4.479,0,0,0,280.156,0Z" transform="translate(-248.83 0)"/>
        <path id="Path_2" data-name="Path 2" class="cls-1" d="M279.2,71.86h7.078V43.7L279.2,44.858Z" transform="translate(-251.504 -32.452)"/>
        <path id="Path_3" data-name="Path 3" class="cls-1" d="M183.9,41.8a21.014,21.014,0,0,0-9.524,2.5l-.8.412,1.9,4.247,1.081-.515a15.747,15.747,0,0,1,6.667-1.57c2.574.1,3.6,1.287,3.6,3.732v1.441h-4.2c-6.744,0-10.914,3.578-11.042,9.112,0,5.277,4.376,9.807,10.5,9.807,4.916,0,9.086-1.6,11.918-4.427V51.53C194.02,44.194,188.794,41.8,183.9,41.8Zm2.934,23.346a6.993,6.993,0,0,1-3.681.9c-2.831,0-4.118-2.188-4.067-4.736.051-2.111,1.364-4.479,4.916-4.479h2.831Z" transform="translate(-171.6 -31.041)"/>
        <path id="Path_4" data-name="Path 4" class="cls-1" d="M470.924,66.59a5.286,5.286,0,0,1-4.093-1.57c-1.261-1.39-1.828-4.2-1.673-7.207H480.4v-.695C480.268,47.13,476.87,42.6,469.405,42.6c-8.314,0-11.557,7.645-11.609,14.826-.052,4.53,1.673,9.112,4.788,11.737a11.72,11.72,0,0,0,7.619,2.471,16.586,16.586,0,0,0,5.019-.746,20.73,20.73,0,0,0,5.328-2.574l-2.008-4.093A13.818,13.818,0,0,1,470.924,66.59Zm-1.519-18.713c3.14,0,3.6,3.4,3.6,5.534h-7.645C465.467,50.682,466.6,47.877,469.405,47.877Z" transform="translate(-384.129 -31.635)"/>
        <path id="Path_5" data-name="Path 5" class="cls-1" d="M328.7,47.557V70.7h7.207V48.921a8.033,8.033,0,0,1,4.839-1.8,8.582,8.582,0,0,1,2.883.309l1.982-4.479a12.219,12.219,0,0,0-4.762-.849A16.426,16.426,0,0,0,328.7,47.557Z" transform="translate(-288.262 -31.263)"/>
        <path id="Path_6" data-name="Path 6" class="cls-1" d="M573.13,44.932c-2.934-.232-3.552-1.519-3.552-3.655V13.4L562.5,14.61V40.787c0,6.2,3.372,8.855,9.009,8.855a17.4,17.4,0,0,0,2.7-.283V44.906A5.859,5.859,0,0,1,573.13,44.932Z" transform="translate(-461.882 -9.951)"/>
        <path id="Path_7" data-name="Path 7" class="cls-1" d="M409.059,13.6,401.8,14.758V41.065c0,5.894,3.449,8.674,9.215,8.674a15.954,15.954,0,0,0,2.7-.257V45.106c-.077,0-.618,0-1.03-.026-3.037-.1-3.629-1.776-3.629-3.732V26.573h4.659v-5.2h-4.659Z" transform="translate(-342.546 -10.099)"/>
      </g>
      <path id="Path_8" data-name="Path 8" class="cls-1" d="M13.962,52a28.239,28.239,0,0,0,5.637-2.96l.463-.283a44.446,44.446,0,0,0,5.328-4.015c3.964-3.475,6.358-6.873,7.722-11.042a13.8,13.8,0,0,0,.386-8.057,10.329,10.329,0,0,0-4.041-5.483A11.86,11.86,0,0,0,22.1,18c-4.273,0-8.932,1.647-13.9,4.891l-.154.1-.026.026a4.194,4.194,0,0,0-.438.283,2.507,2.507,0,0,1-.386.257A30.773,30.773,0,0,0,4.31,25.8C2.225,27.755-.143,31.153-.014,34.036A3.832,3.832,0,0,0,1.5,37a4.934,4.934,0,0,0,3.14,1c2.548,0,5.328-1.39,7.207-2.548a2.827,2.827,0,0,1,.36-.232c.335-.232.669-.438,1-.669l.335-.232A39.878,39.878,0,0,1,22.2,29.532a6.752,6.752,0,0,1,2.188-.412,3.859,3.859,0,0,1,.952.1,2.991,2.991,0,0,1,2.085,1.622,7.461,7.461,0,0,1-.438,6,25.866,25.866,0,0,1-6.924,8.571,27.16,27.16,0,0,1-4.53,3.243l-.129.051a14.624,14.624,0,0,1-2.111,1.03l-.1.051c-.232.077-.412.154-.592.206-3.166.849-1.236-1.931-1.236-1.931a24.839,24.839,0,0,1,2.162-2.188c.438-.412.875-.824,1.313-1.261l.1-.1A3.282,3.282,0,0,0,16.2,42.118a2.836,2.836,0,0,0-2.909-2.394h-.1a5.912,5.912,0,0,0-3.4,1.416,10.855,10.855,0,0,0-2.265,2.574c-.849,1.338-2.625,4.736-.875,7.465a3.8,3.8,0,0,0,3.423,1.647A12.257,12.257,0,0,0,13.962,52Z" transform="translate(0.02 -13.367)"/>
    </g>
    <text id="Internet_Of_Things" data-name="Internet Of Things" class="cls-2" transform="translate(92.2 78.8)"><tspan x="2.762" y="15">PARTNERS</tspan></text>
  </g>
</svg>
